<svg width="32" height="32" viewBox="0 0 32 32" fill="none" xmlns="http://www.w3.org/2000/svg">
<g clip-path="url(#clip0_130_198)">
<path d="M15.4015 3.78768C10.2827 3.28255 5.31903 4.41712 1.95671 5.58349C0.498828 6.08925 -0.308048 7.64844 0.110078 9.13381C0.567516 10.7594 2.30289 11.6615 3.89502 11.0985C8.96872 9.30456 22.2191 6.71987 30.6896 11.4696C30.6896 11.4696 27.1241 4.94456 15.4015 3.78768Z" fill="#404040"/>
<path d="M29.9667 18.1583C29.3953 19.3156 28.0572 19.847 26.8667 19.4448C26.7759 19.3491 26.6739 19.2435 26.5615 19.1296C26.8212 19.0215 27.0732 18.8901 27.315 18.7353C28.3989 18.0417 29.1477 16.9676 29.4237 15.7107L27.2082 15.2243C27.0622 15.8894 26.666 16.4577 26.0924 16.8247C25.5934 17.1441 25.0122 17.2775 24.4315 17.2106C24.3395 17.1369 24.2458 17.0628 24.1502 16.9885C25.4203 16.1288 26.2616 14.6794 26.2741 13.0334L24.0059 13.0161C23.9967 14.236 23.1275 15.2517 21.9792 15.4919C19.4615 13.9762 16.8995 13.1831 14.48 13.1831C11.5151 13.1831 8.33626 14.3736 5.28713 16.6261C3.02407 18.2978 1.62138 19.9613 1.56275 20.0313L0.953125 20.7593L1.56275 21.4873C1.62138 21.5573 3.02413 23.2208 5.28713 24.8926C8.33626 27.145 11.5151 28.3356 14.48 28.3356C17.4449 28.3356 20.6238 27.145 23.6729 24.8926C25.3714 23.6379 26.5853 22.3879 27.1099 21.8127C27.2977 21.8349 27.4859 21.8466 27.6731 21.8466C29.45 21.8466 31.1621 20.8604 32.0005 19.1623L29.9667 18.1583ZM11.8336 25.7016C8.2312 24.7276 5.25945 22.0565 3.97919 20.7583C5.25851 19.4574 8.22826 16.7833 11.8418 15.8133C10.0761 16.757 8.87439 18.6176 8.87439 20.7596C8.87439 22.8982 10.0724 24.7565 11.8336 25.7016ZM14.4799 22.0624C13.7603 22.0624 13.177 21.4791 13.177 20.7595C13.177 20.0399 13.7603 19.4566 14.4799 19.4566C15.1995 19.4566 15.7828 20.0399 15.7828 20.7595C15.7828 21.4791 15.1995 22.0624 14.4799 22.0624ZM17.1181 25.7058C18.8838 24.7621 20.0855 22.9014 20.0855 20.7595C20.0855 18.6209 18.8875 16.7627 17.1265 15.8175C20.7283 16.7916 23.6997 19.462 24.9807 20.7607C23.7014 22.0618 20.7317 24.7359 17.1181 25.7058Z" fill="#404040"/>
</g>
<defs>
<clipPath id="clip0_130_198">
<rect width="32" height="32" fill="white"/>
</clipPath>
</defs>
</svg>
