<svg width="32" height="32" viewBox="0 0 32 32" fill="none" xmlns="http://www.w3.org/2000/svg">
<path d="M28.7357 28.736C28.341 29.136 27.8183 29.3333 27.2957 29.3333C26.7997 29.3333 26.309 29.1573 25.9143 28.7947L10.8477 14.96L14.949 10.8267L28.7997 25.9147C29.5357 26.72 29.5143 27.9627 28.7357 28.736Z" fill="#404040"/>
<path d="M9.03509 11.7492C8.79509 11.5786 8.73642 11.2479 8.90709 11.0079C9.07775 10.7626 9.40842 10.7092 9.64842 10.8746L11.8564 12.4159L12.4218 11.8506L9.48842 7.66922C9.32309 7.42922 9.38175 7.09322 9.62175 6.92255C9.86175 6.75722 10.1924 6.81589 10.3631 7.05589L13.1898 11.0772L14.5604 9.74389C14.1498 7.63722 12.9871 3.08255 10.6884 2.69855C9.06709 2.42655 6.90175 3.91989 5.41375 5.40789C3.92575 6.89589 2.43242 9.06655 2.69909 10.6879C3.08309 12.9759 7.60042 14.1332 9.71775 14.5546L11.0884 13.1839L9.03509 11.7492Z" fill="#404040"/>
</svg>
