<svg width="32" height="32" viewBox="0 0 32 32" fill="none" xmlns="http://www.w3.org/2000/svg">
<path d="M16.9805 4.85798C17.7175 4.12098 18.2736 3.30105 18.5464 2.54923C18.7726 1.92586 18.7695 1.41548 18.5381 1.18411C18.4187 1.06473 18.2318 1.00586 17.9966 1.00586C17.2471 1.00586 16.0035 1.60242 14.8642 2.74167C14.1272 3.47867 13.5711 4.29855 13.2983 5.05036C13.0721 5.67373 13.0752 6.18405 13.3067 6.41548C13.8064 6.91505 15.4834 6.35505 16.9805 4.85798Z" fill="#404040"/>
<path d="M13.8451 7.46803C13.6655 7.46769 13.4866 7.44523 13.3125 7.40115V11.375H18.6875V4.19409C18.3607 4.64953 17.9983 5.07837 17.6038 5.47659C16.3263 6.75403 14.9062 7.46803 13.8451 7.46803Z" fill="#404040"/>
<path d="M12.25 12.25H19.75V18.8125H12.25V12.25Z" fill="#404040"/>
<path d="M11.3125 29.555C11.3129 29.937 11.4644 30.3034 11.734 30.5741C12.0035 30.8448 12.3692 30.9979 12.7512 31H19.2488C19.6308 30.9979 19.9965 30.8448 20.266 30.5741C20.5356 30.3034 20.6871 29.937 20.6875 29.555V19.6875H11.3125V29.555ZM12.6875 22.3464C12.6875 22.2303 12.7336 22.1191 12.8156 22.037C12.8977 21.955 13.009 21.9089 13.125 21.9089C13.241 21.9089 13.3523 21.955 13.4344 22.037C13.5164 22.1191 13.5625 22.2303 13.5625 22.3464V28.4769C13.5625 28.593 13.5164 28.7042 13.4344 28.7863C13.3523 28.8683 13.241 28.9144 13.125 28.9144C13.009 28.9144 12.8977 28.8683 12.8156 28.7863C12.7336 28.7042 12.6875 28.593 12.6875 28.4769V22.3464Z" fill="#404040"/>
</svg>
